<svg width="160" height="16" viewBox="0 0 160 16" fill="none" xmlns="http://www.w3.org/2000/svg">
<path d="M3.096 9.792V3.008H4.104V9.792H3.096ZM0.12 6.88V5.936H7.08V6.88H0.12ZM12.1269 12L16.9589 1.312L17.3109 1.824H10.3829L10.9749 1.264V3.92H9.83887V0.799999H18.0629V1.616L13.3749 12H12.1269ZM29.0163 15.104C28.4296 14.1333 27.9709 13.0133 27.6403 11.744C27.3203 10.464 27.1603 9.088 27.1603 7.616C27.1603 6.144 27.3203 4.768 27.6403 3.488C27.9709 2.19733 28.4296 1.07733 29.0163 0.127999H30.1043C29.4749 1.22667 29.0109 2.39467 28.7123 3.632C28.4243 4.85867 28.2803 6.18667 28.2803 7.616C28.2803 9.04533 28.4243 10.3787 28.7123 11.616C29.0109 12.8427 29.4749 14.0053 30.1043 15.104H29.0163ZM37.1299 12.096C36.2339 12.096 35.4605 11.968 34.8099 11.712C34.1699 11.456 33.6739 11.088 33.3219 10.608C32.9805 10.1173 32.8099 9.54133 32.8099 8.88C32.8099 8.24 32.9752 7.696 33.3059 7.248C33.6472 6.78933 34.1379 6.43733 34.7779 6.192C35.4285 5.94667 36.2125 5.824 37.1299 5.824C38.0365 5.824 38.8152 5.94667 39.4659 6.192C40.1165 6.43733 40.6125 6.78933 40.9539 7.248C41.3059 7.696 41.4819 8.24 41.4819 8.88C41.4819 9.54133 41.3059 10.1173 40.9539 10.608C40.6019 11.088 40.1005 11.456 39.4499 11.712C38.7992 11.968 38.0259 12.096 37.1299 12.096ZM37.1299 11.12C38.1219 11.12 38.8952 10.9173 39.4499 10.512C40.0152 10.1067 40.2979 9.55733 40.2979 8.864C40.2979 8.17067 40.0152 7.62667 39.4499 7.232C38.8952 6.82667 38.1219 6.624 37.1299 6.624C36.1379 6.624 35.3645 6.82667 34.8099 7.232C34.2552 7.62667 33.9779 8.17067 33.9779 8.864C33.9779 9.55733 34.2552 10.1067 34.8099 10.512C35.3645 10.9173 36.1379 11.12 37.1299 11.12ZM37.1299 6.48C36.2979 6.48 35.5885 6.368 35.0019 6.144C34.4259 5.92 33.9832 5.6 33.6739 5.184C33.3645 4.75733 33.2099 4.25067 33.2099 3.664C33.2099 3.04533 33.3699 2.51733 33.6899 2.08C34.0205 1.632 34.4792 1.29067 35.0659 1.056C35.6525 0.821333 36.3405 0.704 37.1299 0.704C37.9192 0.704 38.6072 0.821333 39.1939 1.056C39.7912 1.29067 40.2552 1.632 40.5859 2.08C40.9165 2.51733 41.0819 3.04533 41.0819 3.664C41.0819 4.25067 40.9272 4.75733 40.6179 5.184C40.3085 5.6 39.8552 5.92 39.2579 6.144C38.6712 6.368 37.9619 6.48 37.1299 6.48ZM37.1299 5.712C38.0045 5.712 38.6872 5.53067 39.1779 5.168C39.6685 4.80533 39.9139 4.32 39.9139 3.712C39.9139 3.072 39.6579 2.576 39.1459 2.224C38.6445 1.86133 37.9725 1.68 37.1299 1.68C36.2872 1.68 35.6152 1.86133 35.1139 2.224C34.6125 2.576 34.3619 3.06667 34.3619 3.696C34.3619 4.31467 34.6019 4.80533 35.0819 5.168C35.5725 5.53067 36.2552 5.712 37.1299 5.712ZM46.309 12V1.28L46.821 1.824H43.669V0.799999H47.461V12H46.309ZM51.2103 12V11.184L55.8663 6.624C56.2929 6.208 56.6129 5.84533 56.8263 5.536C57.0396 5.216 57.1836 4.91733 57.2583 4.64C57.3329 4.36267 57.3703 4.10133 57.3703 3.856C57.3703 3.20533 57.1463 2.69333 56.6983 2.32C56.2609 1.94667 55.6103 1.76 54.7463 1.76C54.0849 1.76 53.4983 1.86133 52.9863 2.064C52.4849 2.26667 52.0529 2.58133 51.6903 3.008L50.8743 2.304C51.3116 1.792 51.8716 1.39733 52.5543 1.12C53.2369 0.842666 53.9996 0.704 54.8423 0.704C55.5996 0.704 56.2556 0.826666 56.8103 1.072C57.3649 1.30667 57.7916 1.65333 58.0903 2.112C58.3996 2.57067 58.5543 3.10933 58.5543 3.728C58.5543 4.09067 58.5009 4.448 58.3943 4.8C58.2983 5.152 58.1169 5.52533 57.8503 5.92C57.5943 6.304 57.2156 6.74133 56.7143 7.232L52.4423 11.424L52.1223 10.976H59.0663V12H51.2103ZM62.688 15.104H61.6C62.24 14.0053 62.704 12.8427 62.992 11.616C63.2907 10.3787 63.44 9.04533 63.44 7.616C63.44 6.18667 63.2907 4.85867 62.992 3.632C62.704 2.39467 62.24 1.22667 61.6 0.127999H62.688C63.296 1.07733 63.76 2.19733 64.08 3.488C64.4 4.768 64.56 6.144 64.56 7.616C64.56 9.088 64.4 10.464 64.08 11.744C63.76 13.0133 63.296 14.1333 62.688 15.104Z" fill="#4C858B"/>
<path d="M77.7489 12.192C76.9702 12.192 76.1969 12.0907 75.4289 11.888C74.6715 11.6747 74.0209 11.376 73.4769 10.992L74.5009 9.008C74.9275 9.31733 75.4182 9.56267 75.9729 9.744C76.5382 9.92533 77.1089 10.016 77.6849 10.016C78.3355 10.016 78.8475 9.888 79.2209 9.632C79.5942 9.376 79.7809 9.01867 79.7809 8.56C79.7809 8.272 79.7062 8.016 79.5569 7.792C79.4075 7.568 79.1409 7.39733 78.7569 7.28C78.3835 7.16267 77.8555 7.104 77.1729 7.104H74.3089L74.8849 0.799999H81.7169V2.88H75.8129L77.1569 1.696L76.7569 6.192L75.4129 5.008H77.7809C78.8902 5.008 79.7809 5.16267 80.4529 5.472C81.1355 5.77067 81.6315 6.18133 81.9409 6.704C82.2502 7.22667 82.4049 7.81867 82.4049 8.48C82.4049 9.14133 82.2395 9.75467 81.9089 10.32C81.5782 10.8747 81.0662 11.328 80.3729 11.68C79.6902 12.0213 78.8155 12.192 77.7489 12.192ZM89.5365 12.192C88.6192 12.192 87.7978 11.968 87.0725 11.52C86.3472 11.0613 85.7765 10.4 85.3605 9.536C84.9445 8.672 84.7365 7.62667 84.7365 6.4C84.7365 5.17333 84.9445 4.128 85.3605 3.264C85.7765 2.4 86.3472 1.744 87.0725 1.296C87.7978 0.837333 88.6192 0.608 89.5365 0.608C90.4645 0.608 91.2858 0.837333 92.0005 1.296C92.7258 1.744 93.2965 2.4 93.7125 3.264C94.1285 4.128 94.3365 5.17333 94.3365 6.4C94.3365 7.62667 94.1285 8.672 93.7125 9.536C93.2965 10.4 92.7258 11.0613 92.0005 11.52C91.2858 11.968 90.4645 12.192 89.5365 12.192ZM89.5365 10C89.9738 10 90.3525 9.87733 90.6725 9.632C91.0032 9.38667 91.2592 8.99733 91.4405 8.464C91.6325 7.93067 91.7285 7.24267 91.7285 6.4C91.7285 5.55733 91.6325 4.86933 91.4405 4.336C91.2592 3.80267 91.0032 3.41333 90.6725 3.168C90.3525 2.92267 89.9738 2.8 89.5365 2.8C89.1098 2.8 88.7312 2.92267 88.4005 3.168C88.0805 3.41333 87.8245 3.80267 87.6325 4.336C87.4512 4.86933 87.3605 5.55733 87.3605 6.4C87.3605 7.24267 87.4512 7.93067 87.6325 8.464C87.8245 8.99733 88.0805 9.38667 88.4005 9.632C88.7312 9.87733 89.1098 10 89.5365 10ZM100.812 0.608C101.847 0.608 102.737 0.821333 103.484 1.248C104.231 1.67467 104.807 2.29867 105.212 3.12C105.617 3.93067 105.82 4.944 105.82 6.16C105.82 7.45067 105.575 8.544 105.084 9.44C104.604 10.336 103.937 11.0187 103.084 11.488C102.231 11.9573 101.239 12.192 100.108 12.192C99.5212 12.192 98.9559 12.128 98.4119 12C97.8679 11.872 97.3985 11.68 97.0039 11.424L97.9639 9.52C98.2732 9.73333 98.6039 9.88267 98.9559 9.968C99.3079 10.0427 99.6759 10.08 100.06 10.08C101.02 10.08 101.783 9.78667 102.348 9.2C102.924 8.61333 103.212 7.744 103.212 6.592C103.212 6.4 103.207 6.18667 103.196 5.952C103.185 5.71733 103.159 5.48267 103.116 5.248L103.82 5.92C103.639 6.336 103.383 6.688 103.052 6.976C102.721 7.25333 102.337 7.46667 101.9 7.616C101.463 7.75467 100.972 7.824 100.428 7.824C99.7132 7.824 99.0625 7.68 98.4759 7.392C97.8999 7.104 97.4359 6.69867 97.0839 6.176C96.7425 5.65333 96.5719 5.04 96.5719 4.336C96.5719 3.568 96.7585 2.90667 97.1319 2.352C97.5159 1.79733 98.0279 1.37067 98.6679 1.072C99.3185 0.762666 100.033 0.608 100.812 0.608ZM100.972 2.544C100.599 2.544 100.273 2.61333 99.9959 2.752C99.7185 2.88 99.4999 3.072 99.3399 3.328C99.1799 3.57333 99.0999 3.86667 99.0999 4.208C99.0999 4.72 99.2705 5.13067 99.6119 5.44C99.9639 5.73867 100.428 5.888 101.004 5.888C101.377 5.888 101.708 5.81867 101.996 5.68C102.295 5.53067 102.524 5.328 102.684 5.072C102.844 4.816 102.924 4.528 102.924 4.208C102.924 3.888 102.844 3.60533 102.684 3.36C102.535 3.104 102.316 2.90667 102.028 2.768C101.74 2.61867 101.388 2.544 100.972 2.544ZM114.059 12V10.32L118.379 6.24C118.72 5.93067 118.971 5.65333 119.131 5.408C119.291 5.16267 119.397 4.93867 119.451 4.736C119.515 4.53333 119.547 4.34667 119.547 4.176C119.547 3.728 119.392 3.38667 119.083 3.152C118.784 2.90667 118.341 2.784 117.755 2.784C117.285 2.784 116.848 2.87467 116.443 3.056C116.048 3.23733 115.712 3.52 115.435 3.904L113.547 2.688C113.973 2.048 114.571 1.54133 115.339 1.168C116.107 0.794666 116.992 0.608 117.995 0.608C118.827 0.608 119.552 0.746666 120.171 1.024C120.8 1.29067 121.285 1.66933 121.627 2.16C121.979 2.65067 122.155 3.23733 122.155 3.92C122.155 4.28267 122.107 4.64533 122.011 5.008C121.925 5.36 121.744 5.73333 121.467 6.128C121.2 6.52267 120.805 6.96533 120.283 7.456L116.699 10.832L116.203 9.888H122.523V12H114.059ZM126.6 12V1.76L127.72 2.88H124.36V0.799999H129.192V12H126.6ZM142.165 0.608C143.2 0.608 144.09 0.821333 144.837 1.248C145.584 1.67467 146.16 2.29867 146.565 3.12C146.97 3.93067 147.173 4.944 147.173 6.16C147.173 7.45067 146.928 8.544 146.437 9.44C145.957 10.336 145.29 11.0187 144.437 11.488C143.584 11.9573 142.592 12.192 141.461 12.192C140.874 12.192 140.309 12.128 139.765 12C139.221 11.872 138.752 11.68 138.357 11.424L139.317 9.52C139.626 9.73333 139.957 9.88267 140.309 9.968C140.661 10.0427 141.029 10.08 141.413 10.08C142.373 10.08 143.136 9.78667 143.701 9.2C144.277 8.61333 144.565 7.744 144.565 6.592C144.565 6.4 144.56 6.18667 144.549 5.952C144.538 5.71733 144.512 5.48267 144.469 5.248L145.173 5.92C144.992 6.336 144.736 6.688 144.405 6.976C144.074 7.25333 143.69 7.46667 143.253 7.616C142.816 7.75467 142.325 7.824 141.781 7.824C141.066 7.824 140.416 7.68 139.829 7.392C139.253 7.104 138.789 6.69867 138.437 6.176C138.096 5.65333 137.925 5.04 137.925 4.336C137.925 3.568 138.112 2.90667 138.485 2.352C138.869 1.79733 139.381 1.37067 140.021 1.072C140.672 0.762666 141.386 0.608 142.165 0.608ZM142.325 2.544C141.952 2.544 141.626 2.61333 141.349 2.752C141.072 2.88 140.853 3.072 140.693 3.328C140.533 3.57333 140.453 3.86667 140.453 4.208C140.453 4.72 140.624 5.13067 140.965 5.44C141.317 5.73867 141.781 5.888 142.357 5.888C142.73 5.888 143.061 5.81867 143.349 5.68C143.648 5.53067 143.877 5.328 144.037 5.072C144.197 4.816 144.277 4.528 144.277 4.208C144.277 3.888 144.197 3.60533 144.037 3.36C143.888 3.104 143.669 2.90667 143.381 2.768C143.093 2.61867 142.741 2.544 142.325 2.544ZM154.336 12.192C153.398 12.192 152.576 12.0533 151.872 11.776C151.168 11.488 150.619 11.088 150.224 10.576C149.83 10.0533 149.632 9.44533 149.632 8.752C149.632 8.05867 149.824 7.472 150.208 6.992C150.603 6.50133 151.152 6.13333 151.856 5.888C152.56 5.632 153.387 5.504 154.336 5.504C155.296 5.504 156.128 5.632 156.832 5.888C157.547 6.13333 158.096 6.50133 158.48 6.992C158.875 7.472 159.072 8.05867 159.072 8.752C159.072 9.44533 158.875 10.0533 158.48 10.576C158.086 11.088 157.531 11.488 156.816 11.776C156.112 12.0533 155.286 12.192 154.336 12.192ZM154.336 10.288C154.987 10.288 155.499 10.144 155.872 9.856C156.256 9.568 156.448 9.17333 156.448 8.672C156.448 8.17067 156.256 7.78133 155.872 7.504C155.499 7.216 154.987 7.072 154.336 7.072C153.696 7.072 153.19 7.216 152.816 7.504C152.443 7.78133 152.256 8.17067 152.256 8.672C152.256 9.17333 152.443 9.568 152.816 9.856C153.19 10.144 153.696 10.288 154.336 10.288ZM154.336 6.816C153.472 6.816 152.715 6.69867 152.064 6.464C151.424 6.22933 150.923 5.888 150.56 5.44C150.208 4.98133 150.032 4.43733 150.032 3.808C150.032 3.14667 150.214 2.58133 150.576 2.112C150.939 1.632 151.446 1.264 152.096 1.008C152.747 0.741333 153.494 0.608 154.336 0.608C155.2 0.608 155.952 0.741333 156.592 1.008C157.243 1.264 157.75 1.632 158.112 2.112C158.486 2.58133 158.672 3.14667 158.672 3.808C158.672 4.43733 158.491 4.98133 158.128 5.44C157.776 5.888 157.275 6.22933 156.624 6.464C155.974 6.69867 155.211 6.816 154.336 6.816ZM154.336 5.296C154.88 5.296 155.307 5.17333 155.616 4.928C155.936 4.68267 156.096 4.34667 156.096 3.92C156.096 3.472 155.931 3.12533 155.6 2.88C155.28 2.63467 154.859 2.512 154.336 2.512C153.824 2.512 153.408 2.63467 153.088 2.88C152.768 3.12533 152.608 3.472 152.608 3.92C152.608 4.34667 152.763 4.68267 153.072 4.928C153.382 5.17333 153.803 5.296 154.336 5.296Z" fill="black"/>
<path d="M3.096 9.792H2.096V10.792H3.096V9.792ZM3.096 3.008V2.008H2.096V3.008H3.096ZM4.104 3.008H5.104V2.008H4.104V3.008ZM4.104 9.792V10.792H5.104V9.792H4.104ZM0.12 6.88H-0.88V7.88H0.12V6.88ZM0.12 5.936V4.936H-0.88V5.936H0.12ZM7.08 5.936H8.08V4.936H7.08V5.936ZM7.08 6.88V7.88H8.08V6.88H7.08ZM4.096 9.792V3.008H2.096V9.792H4.096ZM3.096 4.008H4.104V2.008H3.096V4.008ZM3.104 3.008V9.792H5.104V3.008H3.104ZM4.104 8.792H3.096V10.792H4.104V8.792ZM1.12 6.88V5.936H-0.88V6.88H1.12ZM0.12 6.936H7.08V4.936H0.12V6.936ZM6.08 5.936V6.88H8.08V5.936H6.08ZM7.08 5.88H0.12V7.88H7.08V5.88ZM12.1269 12L11.2157 11.588L10.5773 13H12.1269V12ZM16.9589 1.312L17.7829 0.745471L16.7782 -0.715894L16.0477 0.900047L16.9589 1.312ZM17.3109 1.824V2.824H19.2119L18.1349 1.25747L17.3109 1.824ZM10.3829 1.824L9.69568 1.09753L7.87055 2.824H10.3829V1.824ZM10.9749 1.264H11.9749V-1.05847L10.2877 0.537531L10.9749 1.264ZM10.9749 3.92V4.92H11.9749V3.92H10.9749ZM9.83887 3.92H8.83887V4.92H9.83887V3.92ZM9.83887 0.799999V-0.200001H8.83887V0.799999H9.83887ZM18.0629 0.799999H19.0629V-0.200001H18.0629V0.799999ZM18.0629 1.616L18.9743 2.02747L19.0629 1.83127V1.616H18.0629ZM13.3749 12V13H14.0206L14.2863 12.4115L13.3749 12ZM13.0381 12.412L17.8701 1.72395L16.0477 0.900047L11.2157 11.588L13.0381 12.412ZM16.1348 1.87853L16.4868 2.39053L18.1349 1.25747L17.7829 0.745471L16.1348 1.87853ZM17.3109 0.823999H10.3829V2.824H17.3109V0.823999ZM11.0701 2.55047L11.6621 1.99047L10.2877 0.537531L9.69568 1.09753L11.0701 2.55047ZM9.97487 1.264V3.92H11.9749V1.264H9.97487ZM10.9749 2.92H9.83887V4.92H10.9749V2.92ZM10.8389 3.92V0.799999H8.83887V3.92H10.8389ZM9.83887 1.8H18.0629V-0.200001H9.83887V1.8ZM17.0629 0.799999V1.616H19.0629V0.799999H17.0629ZM17.1515 1.20453L12.4635 11.5885L14.2863 12.4115L18.9743 2.02747L17.1515 1.20453ZM13.3749 11H12.1269V13H13.3749V11ZM29.0163 15.104L28.1604 15.6213L28.4522 16.104H29.0163V15.104ZM27.6403 11.744L26.6701 11.9865L26.6725 11.9961L27.6403 11.744ZM27.6403 3.488L26.6715 3.23981L26.6701 3.24546L27.6403 3.488ZM29.0163 0.127999V-0.872001H28.4587L28.1656 -0.397697L29.0163 0.127999ZM30.1043 0.127999L30.972 0.625045L31.8295 -0.872001H30.1043V0.127999ZM28.7123 3.632L27.7401 3.39735L27.7387 3.40343L28.7123 3.632ZM28.7123 11.616L27.7382 11.8427L27.7406 11.8526L28.7123 11.616ZM30.1043 15.104V16.104H31.8295L30.972 14.607L30.1043 15.104ZM29.8721 14.5867C29.3424 13.7103 28.918 12.6822 28.608 11.4919L26.6725 11.9961C27.0238 13.3445 27.5168 14.5563 28.1604 15.6213L29.8721 14.5867ZM28.6104 11.5015C28.3124 10.3093 28.1603 9.01553 28.1603 7.616H26.1603C26.1603 9.16047 26.3281 10.6187 26.6701 11.9865L28.6104 11.5015ZM28.1603 7.616C28.1603 6.21647 28.3124 4.92268 28.6104 3.73054L26.6701 3.24546C26.3281 4.61332 26.1603 6.07153 26.1603 7.616H28.1603ZM28.609 3.73618C28.9192 2.52507 29.3425 1.50224 29.8669 0.653696L28.1656 -0.397697C27.5166 0.652423 27.0226 1.8696 26.6715 3.23982L28.609 3.73618ZM29.0163 1.128H30.1043V-0.872001H29.0163V1.128ZM29.2365 -0.369047C28.5599 0.812152 28.0609 2.06856 27.7402 3.39736L29.6843 3.86664C29.9609 2.72078 30.3899 1.64118 30.972 0.625045L29.2365 -0.369047ZM27.7387 3.40343C27.431 4.71424 27.2803 6.11981 27.2803 7.616H29.2803C29.2803 6.25353 29.4175 5.00309 29.6858 3.86057L27.7387 3.40343ZM27.2803 7.616C27.2803 9.11231 27.431 10.5225 27.7383 11.8427L29.6862 11.3893C29.4175 10.2349 29.2803 8.97836 29.2803 7.616H27.2803ZM27.7406 11.8526C28.0616 13.1708 28.5606 14.4211 29.2365 15.601L30.972 14.607C30.3892 13.5896 29.9602 12.5146 29.6839 11.3794L27.7406 11.8526ZM30.1043 14.104H29.0163V16.104H30.1043V14.104ZM34.8099 11.712L34.4385 12.6405L34.4437 12.6426L34.8099 11.712ZM33.3219 10.608L32.501 11.1791L32.5081 11.1893L32.5155 11.1994L33.3219 10.608ZM33.3059 7.248L32.5036 6.65098L32.5013 6.65415L33.3059 7.248ZM34.7779 6.192L34.4251 5.25629L34.4199 5.25825L34.7779 6.192ZM39.4659 6.192L39.1131 7.1277L39.1131 7.1277L39.4659 6.192ZM40.9539 7.248L40.1516 7.84501L40.1595 7.85552L40.1676 7.86582L40.9539 7.248ZM40.9539 10.608L41.7603 11.1994L41.7664 11.1909L40.9539 10.608ZM39.4499 11.712L39.816 12.6426L39.816 12.6426L39.4499 11.712ZM39.4499 10.512L38.8672 9.69927L38.8599 9.70461L39.4499 10.512ZM39.4499 7.232L38.8599 8.03939L38.8686 8.04577L38.8775 8.05196L39.4499 7.232ZM34.8099 7.232L35.3897 8.04686L35.3999 8.03939L34.8099 7.232ZM34.8099 10.512L34.2199 11.3194L34.2199 11.3194L34.8099 10.512ZM35.0019 6.144L34.6394 7.07602L34.6452 7.07822L35.0019 6.144ZM33.6739 5.184L32.8642 5.77101L32.8714 5.7807L33.6739 5.184ZM33.6899 2.08L32.8853 1.48614L32.8828 1.48949L33.6899 2.08ZM35.0659 1.056L35.4373 1.98448L35.4373 1.98448L35.0659 1.056ZM39.1939 1.056L38.8225 1.98449L38.8282 1.98675L39.1939 1.056ZM40.5859 2.08L39.7812 2.67389L39.7882 2.68311L40.5859 2.08ZM40.6179 5.184L41.4204 5.78075L41.4275 5.77097L40.6179 5.184ZM39.2579 6.144L38.9067 5.20765L38.9012 5.20978L39.2579 6.144ZM39.1459 2.224L38.5598 3.03422L38.5695 3.04125L38.5793 3.04804L39.1459 2.224ZM35.1139 2.224L35.6886 3.04249L35.7 3.03422L35.1139 2.224ZM35.0819 5.168L34.479 5.96591L34.4875 5.97218L35.0819 5.168ZM37.1299 11.096C36.3255 11.096 35.6823 10.9806 35.176 10.7814L34.4437 12.6426C35.2387 12.9554 36.1423 13.096 37.1299 13.096V11.096ZM35.1813 10.7835C34.687 10.5858 34.3531 10.3232 34.1283 10.0166L32.5155 11.1994C32.9946 11.8528 33.6528 12.3262 34.4385 12.6405L35.1813 10.7835ZM34.1428 10.0369C33.9304 9.73159 33.8099 9.35986 33.8099 8.88H31.8099C31.8099 9.72281 32.0307 10.5031 32.501 11.1791L34.1428 10.0369ZM33.8099 8.88C33.8099 8.42054 33.9251 8.09295 34.1104 7.84185L32.5013 6.65415C32.0253 7.29905 31.8099 8.05946 31.8099 8.88H33.8099ZM34.1081 7.84501C34.3155 7.56634 34.6373 7.31685 35.1358 7.12575L34.4199 5.25825C33.6385 5.55782 32.9789 6.01233 32.5036 6.65099L34.1081 7.84501ZM35.1307 7.1277C35.639 6.93605 36.2967 6.824 37.1299 6.824V4.824C36.1283 4.824 35.2181 4.95729 34.4251 5.2563L35.1307 7.1277ZM37.1299 6.824C37.9507 6.824 38.6036 6.93561 39.1131 7.1277L39.8187 5.2563C39.0268 4.95772 38.1223 4.824 37.1299 4.824V6.824ZM39.1131 7.1277C39.6236 7.32019 39.9472 7.57026 40.1516 7.84501L41.7561 6.65099C41.2779 6.00841 40.6095 5.55448 39.8187 5.2563L39.1131 7.1277ZM40.1676 7.86582C40.3641 8.116 40.4819 8.43491 40.4819 8.88H42.4819C42.4819 8.04509 42.2476 7.276 41.7402 6.63018L40.1676 7.86582ZM40.4819 8.88C40.4819 9.35313 40.3598 9.72059 40.1413 10.0251L41.7664 11.1909C42.252 10.5141 42.4819 9.72954 42.4819 8.88H40.4819ZM40.1475 10.0166C39.9255 10.3193 39.5898 10.5823 39.0838 10.7814L39.816 12.6426C40.6113 12.3297 41.2782 11.8567 41.7603 11.1994L40.1475 10.0166ZM39.0838 10.7814C38.5774 10.9806 37.9343 11.096 37.1299 11.096V13.096C38.1175 13.096 39.021 12.9554 39.816 12.6426L39.0838 10.7814ZM37.1299 12.12C38.2434 12.12 39.253 11.8944 40.0399 11.3194L38.8599 9.70461C38.5374 9.94024 38.0003 10.12 37.1299 10.12V12.12ZM40.0326 11.3247C40.8588 10.7323 41.2979 9.88093 41.2979 8.864H39.2979C39.2979 9.23374 39.1716 9.48104 38.8672 9.6993L40.0326 11.3247ZM41.2979 8.864C41.2979 7.8461 40.8574 6.99501 40.0223 6.41204L38.8775 8.05196C39.1731 8.25833 39.2979 8.49523 39.2979 8.864H41.2979ZM40.0399 6.42461C39.253 5.84957 38.2434 5.624 37.1299 5.624V7.624C38.0003 7.624 38.5374 7.80376 38.8599 8.03939L40.0399 6.42461ZM37.1299 5.624C36.0163 5.624 35.0067 5.84957 34.2199 6.42461L35.3999 8.03939C35.7223 7.80376 36.2594 7.624 37.1299 7.624V5.624ZM34.2301 6.41721C33.406 7.00357 32.9779 7.85419 32.9779 8.864H34.9779C34.9779 8.48714 35.1044 8.24976 35.3896 8.04679L34.2301 6.41721ZM32.9779 8.864C32.9779 9.87297 33.4047 10.7237 34.2199 11.3194L35.3999 9.70461C35.1057 9.48962 34.9779 9.2417 34.9779 8.864H32.9779ZM34.2199 11.3194C35.0067 11.8944 36.0163 12.12 37.1299 12.12V10.12C36.2594 10.12 35.7223 9.94024 35.3999 9.70461L34.2199 11.3194ZM37.1299 5.48C36.3824 5.48 35.801 5.3787 35.3586 5.20978L34.6452 7.07822C35.3761 7.35729 36.2133 7.48 37.1299 7.48V5.48ZM35.3643 5.21199C34.9296 5.04292 34.6535 4.82552 34.4763 4.5873L32.8714 5.7807C33.3129 6.37448 33.9222 6.79708 34.6394 7.076L35.3643 5.21199ZM34.4835 4.59703C34.3118 4.36025 34.2099 4.06484 34.2099 3.664H32.2099C32.2099 4.43649 32.4173 5.15442 32.8643 5.77097L34.4835 4.59703ZM34.2099 3.664C34.2099 3.22635 34.3196 2.91283 34.4969 2.67051L32.8828 1.48949C32.4202 2.12183 32.2099 2.86431 32.2099 3.664H34.2099ZM34.4944 2.67385C34.7003 2.39491 34.9995 2.1596 35.4373 1.98448L34.6945 0.127523C33.959 0.421732 33.3407 0.869087 32.8853 1.48615L34.4944 2.67385ZM35.4373 1.98448C35.8804 1.80722 36.4372 1.704 37.1299 1.704V-0.296C36.2439 -0.296 35.4247 -0.164554 34.6945 0.127523L35.4373 1.98448ZM37.1299 1.704C37.8226 1.704 38.3793 1.80722 38.8225 1.98448L39.5653 0.127523C38.8351 -0.164554 38.0159 -0.296 37.1299 -0.296V1.704ZM38.8282 1.98675C39.2778 2.16335 39.5786 2.39917 39.7813 2.67385L41.3904 1.48615C40.9319 0.864832 40.3047 0.417979 39.5595 0.125248L38.8282 1.98675ZM39.7882 2.68311C39.9709 2.92477 40.0819 3.23372 40.0819 3.664H42.0819C42.0819 2.85695 41.8621 2.10989 41.3835 1.47689L39.7882 2.68311ZM40.0819 3.664C40.0819 4.06484 39.9799 4.36025 39.8083 4.59703L41.4275 5.77097C41.8745 5.15442 42.0819 4.43649 42.0819 3.664H40.0819ZM39.8154 4.5873C39.6447 4.81689 39.3658 5.03554 38.9068 5.20767L39.609 7.08033C40.3446 6.80446 40.9724 6.38311 41.4203 5.7807L39.8154 4.5873ZM38.9012 5.20978C38.4588 5.3787 37.8773 5.48 37.1299 5.48V7.48C38.0464 7.48 38.8837 7.35729 39.6146 7.07822L38.9012 5.20978ZM37.1299 6.712C38.1289 6.712 39.0493 6.50657 39.7723 5.97218L38.5835 4.36382C38.3252 4.55476 37.8801 4.712 37.1299 4.712V6.712ZM39.7723 5.97218C40.517 5.42175 40.9139 4.63855 40.9139 3.712H38.9139C38.9139 4.00145 38.8201 4.18892 38.5835 4.36382L39.7723 5.97218ZM40.9139 3.712C40.9139 2.75452 40.5054 1.94511 39.7124 1.39996L38.5793 3.04804C38.8104 3.20689 38.9139 3.38948 38.9139 3.712H40.9139ZM39.732 1.41378C39.0082 0.890161 38.1083 0.679999 37.1299 0.679999V2.68C37.8368 2.68 38.2809 2.83251 38.5598 3.03422L39.732 1.41378ZM37.1299 0.679999C36.1515 0.679999 35.2516 0.890161 34.5278 1.41378L35.7 3.03422C35.9788 2.83251 36.4229 2.68 37.1299 2.68V0.679999ZM34.5392 1.40559C33.7627 1.95082 33.3619 2.75147 33.3619 3.696H35.3619C35.3619 3.38186 35.4624 3.20118 35.6885 3.04241L34.5392 1.40559ZM33.3619 3.696C33.3619 4.61774 33.7407 5.408 34.479 5.96587L35.6847 4.37013C35.4631 4.20267 35.3619 4.0116 35.3619 3.696H33.3619ZM34.4875 5.97218C35.2105 6.50657 36.1308 6.712 37.1299 6.712V4.712C36.3796 4.712 35.9346 4.55476 35.6763 4.36382L34.4875 5.97218ZM46.309 12H45.309V13H46.309V12ZM46.309 1.28L47.0372 0.594635L45.309 -1.24158V1.28H46.309ZM46.821 1.824V2.824H49.1354L47.5492 1.13863L46.821 1.824ZM43.669 1.824H42.669V2.824H43.669V1.824ZM43.669 0.799999V-0.200001H42.669V0.799999H43.669ZM47.461 0.799999H48.461V-0.200001H47.461V0.799999ZM47.461 12V13H48.461V12H47.461ZM47.309 12V1.28H45.309V12H47.309ZM45.5808 1.96536L46.0928 2.50936L47.5492 1.13863L47.0372 0.594635L45.5808 1.96536ZM46.821 0.823999H43.669V2.824H46.821V0.823999ZM44.669 1.824V0.799999H42.669V1.824H44.669ZM43.669 1.8H47.461V-0.200001H43.669V1.8ZM46.461 0.799999V12H48.461V0.799999H46.461ZM47.461 11H46.309V13H47.461V11ZM51.2103 12H50.2103V13H51.2103V12ZM51.2103 11.184L50.5105 10.4696L50.2103 10.7637V11.184H51.2103ZM55.8663 6.624L55.1681 5.908L55.1665 5.90957L55.8663 6.624ZM56.8263 5.536L57.6495 6.10373L57.6539 6.09725L57.6583 6.0907L56.8263 5.536ZM57.2583 4.64L58.2239 4.89997L58.2239 4.89997L57.2583 4.64ZM56.6983 2.32L56.0489 3.08062L56.0581 3.08822L56.6983 2.32ZM52.9863 2.064L52.6182 1.13417L52.6115 1.13689L52.9863 2.064ZM51.6903 3.008L51.037 3.76516L51.7998 4.42321L52.4522 3.65565L51.6903 3.008ZM50.8743 2.304L50.1139 1.65451L49.4676 2.41114L50.221 3.06116L50.8743 2.304ZM52.5543 1.12L52.9306 2.04647L52.9306 2.04647L52.5543 1.12ZM56.8103 1.072L56.4057 1.98653L56.4132 1.98981L56.4206 1.99297L56.8103 1.072ZM58.0903 2.112L57.2523 2.65767L57.2567 2.66444L57.2612 2.67114L58.0903 2.112ZM58.3943 4.8L57.4372 4.50999L57.4332 4.52338L57.4295 4.53688L58.3943 4.8ZM57.8503 5.92L57.0216 5.36013L57.0182 5.3653L57.8503 5.92ZM56.7143 7.232L56.0148 6.51733L56.0139 6.51824L56.7143 7.232ZM52.4423 11.424L51.6285 12.0052L52.3081 12.9567L53.1426 12.1378L52.4423 11.424ZM52.1223 10.976V9.976H50.1791L51.3085 11.5572L52.1223 10.976ZM59.0663 10.976H60.0663V9.976H59.0663V10.976ZM59.0663 12V13H60.0663V12H59.0663ZM52.2103 12V11.184H50.2103V12H52.2103ZM51.91 11.8984L56.566 7.33843L55.1665 5.90957L50.5105 10.4696L51.91 11.8984ZM56.5644 7.34C57.0139 6.90173 57.3844 6.48801 57.6495 6.10373L56.003 4.96827C55.8414 5.20265 55.572 5.51427 55.1682 5.908L56.5644 7.34ZM57.6583 6.0907C57.9128 5.70901 58.1132 5.3109 58.2239 4.89997L56.2926 4.38003C56.2539 4.52377 56.1664 4.72299 55.9942 4.9813L57.6583 6.0907ZM58.2239 4.89997C58.3176 4.5519 58.3703 4.20256 58.3703 3.856H56.3703C56.3703 4.0001 56.3483 4.17343 56.2926 4.38003L58.2239 4.89997ZM58.3703 3.856C58.3703 2.9473 58.0426 2.13859 57.3384 1.55178L56.0581 3.08822C56.2499 3.24808 56.3703 3.46337 56.3703 3.856H58.3703ZM57.3475 1.55944C56.6573 0.970251 55.7328 0.759999 54.7463 0.759999V2.76C55.4877 2.76 55.8645 2.92308 56.049 3.08056L57.3475 1.55944ZM54.7463 0.759999C53.9836 0.759999 53.2683 0.876846 52.6182 1.13419L53.3543 2.99381C53.7282 2.84582 54.1862 2.76 54.7463 2.76V0.759999ZM52.6115 1.13689C51.955 1.40227 51.3917 1.81517 50.9283 2.36035L52.4522 3.65565C52.7141 3.3475 53.0148 3.13106 53.361 2.99111L52.6115 1.13689ZM52.3435 2.25084L51.5275 1.54684L50.221 3.06116L51.037 3.76516L52.3435 2.25084ZM51.6346 2.95349C51.9584 2.57441 52.382 2.26934 52.9306 2.04647L52.1779 0.193533C51.3611 0.525329 50.6647 1.00959 50.1139 1.65451L51.6346 2.95349ZM52.9306 2.04647C53.4778 1.82416 54.1102 1.704 54.8423 1.704V-0.296C53.8889 -0.296 52.996 -0.138831 52.1779 0.193533L52.9306 2.04647ZM54.8423 1.704C55.4939 1.704 56.006 1.80972 56.4057 1.98653L57.2148 0.157464C56.5052 -0.156389 55.7053 -0.296 54.8423 -0.296V1.704ZM56.4206 1.99297C56.811 2.15812 57.0732 2.38264 57.2523 2.65767L58.9282 1.56633C58.51 0.924031 57.9189 0.455212 57.1999 0.151032L56.4206 1.99297ZM57.2612 2.67114C57.4462 2.94544 57.5543 3.28412 57.5543 3.728H59.5543C59.5543 2.93455 59.353 2.19589 58.9193 1.55286L57.2612 2.67114ZM57.5543 3.728C57.5543 3.99101 57.5158 4.25068 57.4372 4.50999L59.3513 5.09001C59.486 4.64532 59.5543 4.19032 59.5543 3.728H57.5543ZM57.4295 4.53688C57.3696 4.75649 57.2447 5.03009 57.0217 5.36014L58.6788 6.47986C58.9892 6.02058 59.2269 5.54751 59.359 5.06312L57.4295 4.53688ZM57.0182 5.3653C56.8151 5.66996 56.4893 6.05295 56.0148 6.51733L57.4137 7.94667C57.9419 7.42972 58.3734 6.93804 58.6823 6.4747L57.0182 5.3653ZM56.0139 6.51824L51.7419 10.7102L53.1426 12.1378L57.4146 7.94576L56.0139 6.51824ZM53.256 10.8428L52.936 10.3948L51.3085 11.5572L51.6285 12.0052L53.256 10.8428ZM52.1223 11.976H59.0663V9.976H52.1223V11.976ZM58.0663 10.976V12H60.0663V10.976H58.0663ZM59.0663 11H51.2103V13H59.0663V11ZM62.688 15.104V16.104H63.2416L63.5355 15.6348L62.688 15.104ZM61.6 15.104L60.7359 14.6007L59.8602 16.104H61.6V15.104ZM62.992 11.616L62.0199 11.3814L62.0185 11.3874L62.992 11.616ZM62.992 3.632L62.018 3.85871L62.0204 3.86857L62.992 3.632ZM61.6 0.127999V-0.872001H59.8602L60.7359 0.631349L61.6 0.127999ZM62.688 0.127999L63.5301 -0.411323L63.2351 -0.872001H62.688V0.127999ZM64.08 3.488L63.1094 3.72865L63.1099 3.73054L64.08 3.488ZM64.08 11.744L65.0497 11.9885L65.0501 11.9865L64.08 11.744ZM62.688 14.104H61.6V16.104H62.688V14.104ZM62.4641 15.6073C63.1535 14.4238 63.6547 13.1686 63.9655 11.8446L62.0185 11.3874C61.7533 12.5167 61.3265 13.5869 60.7359 14.6007L62.4641 15.6073ZM63.9641 11.8506C64.2834 10.5277 64.44 9.11486 64.44 7.616H62.44C62.44 8.97581 62.2979 10.2296 62.0199 11.3814L63.9641 11.8506ZM64.44 7.616C64.44 6.11726 64.2834 4.70894 63.9636 3.39543L62.0204 3.86857C62.2979 5.00839 62.44 6.25608 62.44 7.616H64.44ZM63.966 3.4053C63.6553 2.0707 63.1543 0.809461 62.4641 -0.37535L60.7359 0.631349C61.3257 1.64387 61.7527 2.71863 62.018 3.8587L63.966 3.4053ZM61.6 1.128H62.688V-0.872001H61.6V1.128ZM61.8459 0.667322C62.3856 1.50997 62.811 2.52535 63.1094 3.72865L65.0506 3.24735C64.709 1.86932 64.2064 0.644698 63.5301 -0.411323L61.8459 0.667322ZM63.1099 3.73054C63.4079 4.92268 63.56 6.21647 63.56 7.616H65.56C65.56 6.07153 65.3921 4.61332 65.0501 3.24546L63.1099 3.73054ZM63.56 7.616C63.56 9.01553 63.4079 10.3093 63.1099 11.5015L65.0501 11.9865C65.3921 10.6187 65.56 9.16047 65.56 7.616H63.56ZM63.1103 11.4995C62.8123 12.6818 62.3858 13.7026 61.8405 14.5732L63.5355 15.6348C64.2062 14.5641 64.7077 13.3448 65.0497 11.9885L63.1103 11.4995ZM75.4289 11.888L75.1577 12.8505L75.1657 12.8528L75.1737 12.8549L75.4289 11.888ZM73.4769 10.992L72.5883 10.5334L72.189 11.3069L72.9002 11.809L73.4769 10.992ZM74.5009 9.008L75.0878 8.19839L74.1459 7.51546L73.6123 8.54936L74.5009 9.008ZM75.9729 9.744L75.6621 10.6945L75.6674 10.6962L75.9729 9.744ZM79.2209 9.632L79.7864 10.4567L79.7864 10.4567L79.2209 9.632ZM78.7569 7.28L78.457 8.23402L78.4647 8.23635L78.7569 7.28ZM74.3089 7.104L73.313 7.01301L73.2133 8.104H74.3089V7.104ZM74.8849 0.799999V-0.200001H73.9721L73.889 0.709008L74.8849 0.799999ZM81.7169 0.799999H82.7169V-0.200001H81.7169V0.799999ZM81.7169 2.88V3.88H82.7169V2.88H81.7169ZM75.8129 2.88L75.1518 2.12964L73.1649 3.88H75.8129V2.88ZM77.1569 1.696L78.1529 1.78462L78.3748 -0.709677L76.4958 0.94564L77.1569 1.696ZM76.7569 6.192L76.0958 6.94236L77.5779 8.24799L77.7529 6.28062L76.7569 6.192ZM75.4129 5.008V4.008H72.7649L74.7518 5.75836L75.4129 5.008ZM80.4529 5.472L80.0347 6.38038L80.0434 6.38435L80.0521 6.38816L80.4529 5.472ZM81.9409 6.704L82.8014 6.19468L82.8014 6.19468L81.9409 6.704ZM81.9089 10.32L82.7678 10.8321L82.7721 10.8249L81.9089 10.32ZM80.3729 11.68L80.8201 12.5744L80.8256 12.5717L80.3729 11.68ZM77.7489 11.192C77.0581 11.192 76.3704 11.1022 75.684 10.9211L75.1737 12.8549C76.0233 13.0791 76.8824 13.192 77.7489 13.192V11.192ZM75.7 10.9255C75.0327 10.7375 74.4896 10.4828 74.0536 10.175L72.9002 11.809C73.5522 12.2692 74.3104 12.6119 75.1577 12.8505L75.7 10.9255ZM74.3655 11.4506L75.3895 9.46664L73.6123 8.54936L72.5883 10.5334L74.3655 11.4506ZM73.9139 9.81761C74.4333 10.1942 75.0191 10.4843 75.6621 10.6945L76.2836 8.7935C75.8173 8.64105 75.4218 8.44051 75.0878 8.19839L73.9139 9.81761ZM75.6674 10.6962C76.3284 10.9082 77.002 11.016 77.6849 11.016V9.016C77.2157 9.016 76.748 8.94244 76.2783 8.79178L75.6674 10.6962ZM77.6849 11.016C78.453 11.016 79.1884 10.8668 79.7864 10.4567L78.6553 8.80727C78.5067 8.9092 78.2181 9.016 77.6849 9.016V11.016ZM79.7864 10.4567C80.436 10.0113 80.7809 9.34315 80.7809 8.56H78.7809C78.7809 8.65049 78.7635 8.69185 78.7545 8.70898C78.7458 8.7256 78.7239 8.76026 78.6553 8.80727L79.7864 10.4567ZM80.7809 8.56C80.7809 8.08903 80.6555 7.6372 80.3889 7.2373L78.7248 8.3467C78.7569 8.3948 78.7809 8.45497 78.7809 8.56H80.7809ZM80.3889 7.2373C80.0617 6.74642 79.5495 6.47654 79.0491 6.32365L78.4647 8.23635C78.5917 8.27517 78.6665 8.3131 78.7058 8.33827C78.7429 8.362 78.7392 8.36824 78.7248 8.3467L80.3889 7.2373ZM79.0567 6.32601C78.5401 6.16364 77.8935 6.104 77.1729 6.104V8.104C77.8175 8.104 78.227 8.16169 78.457 8.23399L79.0567 6.32601ZM77.1729 6.104H74.3089V8.104H77.1729V6.104ZM75.3047 7.19499L75.8807 0.890991L73.889 0.709008L73.313 7.01301L75.3047 7.19499ZM74.8849 1.8H81.7169V-0.200001H74.8849V1.8ZM80.7169 0.799999V2.88H82.7169V0.799999H80.7169ZM81.7169 1.88H75.8129V3.88H81.7169V1.88ZM76.4739 3.63036L77.8179 2.44636L76.4958 0.94564L75.1518 2.12964L76.4739 3.63036ZM76.1608 1.60738L75.7608 6.10338L77.7529 6.28062L78.1529 1.78462L76.1608 1.60738ZM77.4179 5.44164L76.0739 4.25764L74.7518 5.75836L76.0958 6.94236L77.4179 5.44164ZM75.4129 6.008H77.7809V4.008H75.4129V6.008ZM77.7809 6.008C78.8115 6.008 79.5427 6.15389 80.0347 6.38038L80.871 4.56362C80.0191 4.17145 78.9689 4.008 77.7809 4.008V6.008ZM80.0521 6.38816C80.5869 6.62215 80.9 6.9087 81.0803 7.21332L82.8014 6.19468C82.3631 5.45397 81.6842 4.91918 80.8537 4.55584L80.0521 6.38816ZM81.0803 7.21332C81.2903 7.56821 81.4049 7.98142 81.4049 8.48H83.4049C83.4049 7.65591 83.2101 6.88512 82.8014 6.19468L81.0803 7.21332ZM81.4049 8.48C81.4049 8.9657 81.2858 9.40452 81.0457 9.81512L82.7721 10.8249C83.1932 10.1048 83.4049 9.31696 83.4049 8.48H81.4049ZM81.0499 9.80794C80.8342 10.1697 80.4796 10.5043 79.9202 10.7883L80.8256 12.5717C81.6528 12.1517 82.3222 11.5796 82.7678 10.8321L81.0499 9.80794ZM79.9257 10.7856C79.4258 11.0355 78.7183 11.192 77.7489 11.192V13.192C78.9128 13.192 79.9546 13.0072 80.8201 12.5744L79.9257 10.7856ZM87.0725 11.52L86.538 12.3652L86.547 12.3708L87.0725 11.52ZM85.3605 9.536L84.4595 9.96982L85.3605 9.536ZM85.3605 3.264L86.2615 3.69782L86.2615 3.69782L85.3605 3.264ZM87.0725 1.296L87.598 2.14685L87.607 2.14119L87.0725 1.296ZM92.0005 1.296L91.4604 2.13759L91.4677 2.14226L91.475 2.1468L92.0005 1.296ZM93.7125 3.264L92.8115 3.69782L92.8115 3.69782L93.7125 3.264ZM93.7125 9.536L92.8115 9.10218L92.8115 9.10218L93.7125 9.536ZM92.0005 11.52L92.5316 12.3673L92.535 12.3652L92.0005 11.52ZM90.6725 9.632L90.0767 8.8289L90.0703 8.8336L90.0641 8.83839L90.6725 9.632ZM91.4405 8.464L90.4996 8.12528L90.4966 8.13366L90.4937 8.1421L91.4405 8.464ZM91.4405 4.336L90.4937 4.6579L90.4966 4.66634L90.4996 4.67472L91.4405 4.336ZM90.6725 3.168L90.0641 3.96161L90.0703 3.9664L90.0767 3.9711L90.6725 3.168ZM88.4005 3.168L87.8047 2.3649L87.7983 2.3696L87.7921 2.37439L88.4005 3.168ZM87.6325 4.336L86.6916 3.99728L86.6886 4.00566L86.6857 4.0141L87.6325 4.336ZM87.6325 8.464L86.6857 8.7859L86.6886 8.79434L86.6916 8.80272L87.6325 8.464ZM88.4005 9.632L87.7921 10.4256L87.7983 10.4304L87.8047 10.4351L88.4005 9.632ZM89.5365 11.192C88.7901 11.192 88.1534 11.0122 87.598 10.6692L86.547 12.3708C87.4423 12.9238 88.4482 13.192 89.5365 13.192V11.192ZM87.607 10.6748C87.058 10.3277 86.6061 9.81784 86.2615 9.10218L84.4595 9.96982C84.9469 10.9822 85.6363 11.795 86.538 12.3652L87.607 10.6748ZM86.2615 9.10218C85.9262 8.40584 85.7365 7.51702 85.7365 6.4H83.7365C83.7365 7.73631 83.9628 8.93816 84.4595 9.96982L86.2615 9.10218ZM85.7365 6.4C85.7365 5.28298 85.9262 4.39416 86.2615 3.69782L84.4595 2.83018C83.9628 3.86184 83.7365 5.06368 83.7365 6.4H85.7365ZM86.2615 3.69782C86.6053 2.98368 87.0548 2.48233 87.598 2.1468L86.547 0.445202C85.6396 1.00567 84.9477 1.81632 84.4595 2.83018L86.2615 3.69782ZM87.607 2.14119C88.1612 1.79069 88.7948 1.608 89.5365 1.608V-0.392C88.4436 -0.392 87.4344 -0.116026 86.538 0.450806L87.607 2.14119ZM89.5365 1.608C90.2915 1.608 90.9217 1.79189 91.4604 2.13759L92.5406 0.454413C91.6499 -0.117228 90.6375 -0.392 89.5365 -0.392V1.608ZM91.475 2.1468C92.0182 2.48233 92.4677 2.98368 92.8115 3.69782L94.6135 2.83018C94.1253 1.81632 93.4334 1.00567 92.526 0.445201L91.475 2.1468ZM92.8115 3.69782C93.1468 4.39416 93.3365 5.28298 93.3365 6.4H95.3365C95.3365 5.06368 95.1102 3.86184 94.6135 2.83018L92.8115 3.69782ZM93.3365 6.4C93.3365 7.51702 93.1468 8.40584 92.8115 9.10218L94.6135 9.96982C95.1102 8.93816 95.3365 7.73631 95.3365 6.4H93.3365ZM92.8115 9.10218C92.4669 9.81784 92.015 10.3277 91.466 10.6748L92.535 12.3652C93.4367 11.795 94.1261 10.9822 94.6135 9.96982L92.8115 9.10218ZM91.4694 10.6727C90.9296 11.0111 90.2961 11.192 89.5365 11.192V13.192C90.6329 13.192 91.642 12.9249 92.5316 12.3673L91.4694 10.6727ZM89.5365 11C90.1741 11 90.7713 10.8163 91.2809 10.4256L90.0641 8.83839C89.9337 8.93832 89.7736 9 89.5365 9V11ZM91.2684 10.4351C91.8123 10.0316 92.164 9.44253 92.3873 8.7859L90.4937 8.1421C90.3543 8.55214 90.1941 8.74178 90.0767 8.8289L91.2684 10.4351ZM92.3814 8.80272C92.6266 8.12152 92.7285 7.30742 92.7285 6.4H90.7285C90.7285 7.17791 90.6384 7.73981 90.4996 8.12528L92.3814 8.80272ZM92.7285 6.4C92.7285 5.49258 92.6266 4.67847 92.3814 3.99728L90.4996 4.67472C90.6384 5.06019 90.7285 5.62209 90.7285 6.4H92.7285ZM92.3873 4.0141C92.164 3.35747 91.8123 2.76845 91.2684 2.3649L90.0767 3.9711C90.1941 4.05822 90.3543 4.24786 90.4937 4.6579L92.3873 4.0141ZM91.2809 2.37439C90.7713 1.98366 90.1741 1.8 89.5365 1.8V3.8C89.7736 3.8 89.9337 3.86167 90.0641 3.96161L91.2809 2.37439ZM89.5365 1.8C88.9036 1.8 88.3142 1.98682 87.8047 2.3649L88.9963 3.9711C89.1481 3.85851 89.3161 3.8 89.5365 3.8V1.8ZM87.7921 2.37439C87.27 2.77465 86.9233 3.35371 86.6916 3.99728L88.5734 4.67472C88.7257 4.25163 88.891 4.05201 89.0089 3.96161L87.7921 2.37439ZM86.6857 4.0141C86.4563 4.68893 86.3605 5.49662 86.3605 6.4H88.3605C88.3605 5.61804 88.4461 5.04973 88.5793 4.6579L86.6857 4.0141ZM86.3605 6.4C86.3605 7.30338 86.4563 8.11107 86.6857 8.7859L88.5793 8.1421C88.4461 7.75027 88.3605 7.18196 88.3605 6.4H86.3605ZM86.6916 8.80272C86.9233 9.44629 87.27 10.0253 87.7921 10.4256L89.0089 8.83839C88.891 8.74798 88.7257 8.54837 88.5734 8.12528L86.6916 8.80272ZM87.8047 10.4351C88.3142 10.8132 88.9036 11 89.5365 11V9C89.3161 9 89.1481 8.94149 88.9963 8.8289L87.8047 10.4351ZM103.484 1.248L103.98 0.379756L103.98 0.379756L103.484 1.248ZM105.212 3.12L104.315 3.56255L104.317 3.56721L105.212 3.12ZM105.084 9.44L104.207 8.95966L104.202 8.96778L105.084 9.44ZM103.084 11.488L103.566 12.3642L103.566 12.3642L103.084 11.488ZM97.0039 11.424L96.111 10.9738L95.7071 11.7748L96.4597 12.263L97.0039 11.424ZM97.9639 9.52L98.5316 8.69679L97.5874 8.04558L97.071 9.06979L97.9639 9.52ZM98.9559 9.968L98.7203 10.9399L98.7343 10.9432L98.7484 10.9462L98.9559 9.968ZM102.348 9.2L101.634 8.49938L101.628 8.50611L102.348 9.2ZM103.196 5.952L102.197 5.99741L102.197 5.99741L103.196 5.952ZM103.116 5.248L103.806 4.52464L101.582 2.4013L102.132 5.42689L103.116 5.248ZM103.82 5.92L104.737 6.31958L105.016 5.67908L104.51 5.19664L103.82 5.92ZM103.052 6.976L103.694 7.74219L103.702 7.7362L103.709 7.73008L103.052 6.976ZM101.9 7.616L102.202 8.56923L102.213 8.5659L102.223 8.56235L101.9 7.616ZM98.4759 7.392L98.0287 8.28645L98.0352 8.28967L98.4759 7.392ZM97.0839 6.176L96.2466 6.72279L96.2505 6.72872L96.2544 6.7346L97.0839 6.176ZM97.1319 2.352L96.3096 1.78274L96.3023 1.79362L97.1319 2.352ZM98.6679 1.072L99.0908 1.97821L99.0972 1.97513L98.6679 1.072ZM99.9959 2.752L100.415 3.65996L100.429 3.65341L100.443 3.64643L99.9959 2.752ZM99.3399 3.328L100.177 3.87427L100.183 3.86618L100.188 3.858L99.3399 3.328ZM99.6119 5.44L98.9404 6.18099L98.9525 6.19195L98.9649 6.20251L99.6119 5.44ZM101.996 5.68L102.43 6.581L102.436 6.57776L102.443 6.57443L101.996 5.68ZM102.684 5.072L101.836 4.542L101.836 4.542L102.684 5.072ZM102.684 3.36L101.82 3.86387L101.833 3.8854L101.846 3.90627L102.684 3.36ZM102.028 2.768L101.568 3.65575L101.581 3.66257L101.594 3.669L102.028 2.768ZM100.812 1.608C101.708 1.608 102.42 1.7919 102.988 2.11624L103.98 0.379756C103.054 -0.149234 101.985 -0.392 100.812 -0.392V1.608ZM102.988 2.11624C103.55 2.43753 103.992 2.90762 104.315 3.56255L106.109 2.67745C105.621 1.68971 104.911 0.911807 103.98 0.379756L102.988 2.11624ZM104.317 3.56721C104.634 4.19992 104.82 5.04865 104.82 6.16H106.82C106.82 4.83935 106.601 3.66141 106.106 2.67279L104.317 3.56721ZM104.82 6.16C104.82 7.32614 104.598 8.24478 104.207 8.95969L105.961 9.92031C106.551 8.84322 106.82 7.5752 106.82 6.16H104.82ZM104.202 8.96778C103.81 9.70117 103.278 10.2399 102.602 10.6118L103.566 12.3642C104.596 11.7975 105.398 10.9708 105.965 9.91222L104.202 8.96778ZM102.602 10.6118C101.918 10.9877 101.097 11.192 100.108 11.192V13.192C101.38 13.192 102.543 12.927 103.566 12.3642L102.602 10.6118ZM100.108 11.192C99.5945 11.192 99.1062 11.1361 98.6409 11.0266L98.1828 12.9734C98.8055 13.1199 99.4479 13.192 100.108 13.192V11.192ZM98.6409 11.0266C98.1884 10.9201 97.83 10.7679 97.5481 10.585L96.4597 12.263C96.9671 12.5921 97.5474 12.8239 98.1828 12.9734L98.6409 11.0266ZM97.8968 11.8742L98.8568 9.97021L97.071 9.06979L96.111 10.9738L97.8968 11.8742ZM97.3961 10.3432C97.8023 10.6233 98.245 10.8246 98.7203 10.9399L99.1915 8.99615C98.9628 8.94071 98.7441 8.84332 98.5316 8.69679L97.3961 10.3432ZM98.7484 10.9462C99.173 11.0363 99.6108 11.08 100.06 11.08V9.08C99.741 9.08 99.4428 9.04903 99.1634 8.98977L98.7484 10.9462ZM100.06 11.08C101.239 11.08 102.281 10.711 103.068 9.89389L101.628 8.50611C101.284 8.86238 100.801 9.08 100.06 9.08V11.08ZM103.061 9.90059C103.884 9.06274 104.212 7.89968 104.212 6.592H102.212C102.212 7.58832 101.964 8.16393 101.634 8.49941L103.061 9.90059ZM104.212 6.592C104.212 6.38197 104.206 6.15319 104.195 5.90659L102.197 5.99741C102.207 6.22014 102.212 6.41803 102.212 6.592H104.212ZM104.195 5.90659C104.182 5.62646 104.15 5.34721 104.1 5.06911L102.132 5.42689C102.167 5.61812 102.188 5.8082 102.197 5.99741L104.195 5.90659ZM102.425 5.97136L103.129 6.64336L104.51 5.19664L103.806 4.52464L102.425 5.97136ZM102.903 5.52041C102.779 5.80532 102.61 6.03478 102.395 6.22192L103.709 7.73008C104.155 7.34122 104.498 6.86668 104.737 6.31958L102.903 5.52041ZM102.409 6.20981C102.18 6.40244 101.906 6.55732 101.577 6.66965L102.223 8.56235C102.769 8.37602 103.263 8.10422 103.694 7.74219L102.409 6.20981ZM101.598 6.66277C101.274 6.76531 100.888 6.824 100.428 6.824V8.824C101.056 8.824 101.651 8.74403 102.202 8.56923L101.598 6.66277ZM100.428 6.824C99.8515 6.824 99.3536 6.70889 98.9166 6.49433L98.0352 8.28967C98.7715 8.65111 99.5749 8.824 100.428 8.824V6.824ZM98.9231 6.49757C98.4978 6.28492 98.1668 5.99379 97.9133 5.6174L96.2544 6.7346C96.705 7.40354 97.302 7.92308 98.0287 8.28643L98.9231 6.49757ZM97.9211 5.62921C97.6992 5.28932 97.5719 4.8714 97.5719 4.336H95.5719C95.5719 5.2086 95.7859 6.01734 96.2466 6.72279L97.9211 5.62921ZM97.5719 4.336C97.5719 3.73649 97.7151 3.27644 97.9615 2.91038L96.3023 1.79362C95.802 2.53689 95.5719 3.39951 95.5719 4.336H97.5719ZM97.9541 2.92121C98.2324 2.51923 98.6035 2.20556 99.0908 1.97818L98.245 0.165816C97.4522 0.535772 96.7994 1.07543 96.3097 1.78279L97.9541 2.92121ZM99.0972 1.97513C99.6031 1.73462 100.17 1.608 100.812 1.608V-0.392C99.8969 -0.392 99.0339 -0.209285 98.2385 0.168865L99.0972 1.97513ZM100.972 1.544C100.475 1.544 99.9904 1.63671 99.5487 1.85757L100.443 3.64643C100.556 3.58995 100.722 3.544 100.972 3.544V1.544ZM99.5768 1.84404C99.125 2.05258 98.7563 2.3749 98.4919 2.798L100.188 3.858C100.243 3.7691 100.312 3.70742 100.415 3.65996L99.5768 1.84404ZM98.5023 2.78173C98.2197 3.21498 98.0999 3.70546 98.0999 4.208H100.1C100.1 4.02787 100.14 3.93168 100.177 3.87427L98.5023 2.78173ZM98.0999 4.208C98.0999 4.96726 98.3652 5.65978 98.9404 6.18099L100.283 4.69901C100.176 4.60155 100.1 4.47274 100.1 4.208H98.0999ZM98.9649 6.20251C99.539 6.6896 100.251 6.888 101.004 6.888V4.888C100.604 4.888 100.389 4.78773 100.259 4.67749L98.9649 6.20251ZM101.004 6.888C101.502 6.888 101.985 6.79491 102.43 6.581L101.562 4.779C101.43 4.84242 101.252 4.888 101.004 4.888V6.888ZM102.443 6.57443C102.888 6.35181 103.264 6.03026 103.532 5.602L101.836 4.542C101.784 4.62574 101.701 4.70953 101.549 4.78557L102.443 6.57443ZM103.532 5.602C103.797 5.17739 103.924 4.70366 103.924 4.208H101.924C101.924 4.35233 101.89 4.45461 101.836 4.542L103.532 5.602ZM103.924 4.208C103.924 3.7127 103.797 3.23653 103.521 2.81373L101.846 3.90627C101.891 3.97414 101.924 4.0633 101.924 4.208H103.924ZM103.548 2.85613C103.29 2.41417 102.915 2.08507 102.462 1.867L101.594 3.669C101.717 3.72826 101.779 3.79383 101.82 3.86387L103.548 2.85613ZM102.488 1.88025C102.024 1.63929 101.504 1.544 100.972 1.544V3.544C101.272 3.544 101.456 3.59804 101.568 3.65575L102.488 1.88025ZM114.059 12H113.059V13H114.059V12ZM114.059 10.32L113.372 9.59299L113.059 9.88895V10.32H114.059ZM118.379 6.24L117.707 5.49901L117.699 5.50592L117.692 5.51299L118.379 6.24ZM119.131 5.408L119.968 5.95427L119.968 5.95427L119.131 5.408ZM119.451 4.736L118.497 4.43487L118.49 4.45802L118.484 4.48151L119.451 4.736ZM119.083 3.152L118.448 3.92473L118.463 3.937L118.478 3.94869L119.083 3.152ZM116.443 3.056L116.034 2.14314L116.025 2.14732L116.443 3.056ZM115.435 3.904L114.893 4.74471L115.69 5.25808L116.245 4.48949L115.435 3.904ZM113.547 2.688L112.715 2.1333L112.151 2.97861L113.005 3.52872L113.547 2.688ZM115.339 1.168L114.901 0.268631L114.901 0.268632L115.339 1.168ZM120.171 1.024L119.762 1.93651L119.771 1.94073L119.78 1.94475L120.171 1.024ZM121.627 2.16L120.806 2.73106L120.81 2.73702L120.814 2.74291L121.627 2.16ZM122.011 5.008L121.044 4.75211L121.041 4.76223L121.039 4.7724L122.011 5.008ZM121.467 6.128L120.648 5.55305L120.643 5.56055L120.638 5.56814L121.467 6.128ZM120.283 7.456L119.598 6.72693L119.597 6.72809L120.283 7.456ZM116.699 10.832L115.813 11.2971L116.426 12.4628L117.384 11.5599L116.699 10.832ZM116.203 9.888V8.888H114.548L115.317 10.3531L116.203 9.888ZM122.523 9.888H123.523V8.888H122.523V9.888ZM122.523 12V13H123.523V12H122.523ZM115.059 12V10.32H113.059V12H115.059ZM114.745 11.047L119.065 6.96701L117.692 5.51299L113.372 9.59299L114.745 11.047ZM119.05 6.98099C119.423 6.64293 119.743 6.30009 119.968 5.95427L118.293 4.86173C118.199 5.00658 118.017 5.2184 117.707 5.49901L119.05 6.98099ZM119.968 5.95427C120.165 5.65207 120.329 5.32883 120.418 4.99049L118.484 4.48151C118.466 4.5485 118.416 4.67326 118.293 4.86173L119.968 5.95427ZM120.404 5.03713C120.492 4.75989 120.547 4.4703 120.547 4.176H118.547C118.547 4.22303 118.537 4.30677 118.497 4.43487L120.404 5.03713ZM120.547 4.176C120.547 3.46982 120.286 2.80979 119.687 2.35531L118.478 3.94869C118.505 3.96928 118.514 3.98312 118.52 3.99673C118.528 4.01491 118.547 4.06696 118.547 4.176H120.547ZM119.717 2.37927C119.168 1.92775 118.458 1.784 117.755 1.784V3.784C118.224 3.784 118.4 3.88558 118.448 3.92473L119.717 2.37927ZM117.755 1.784C117.153 1.784 116.575 1.90113 116.034 2.14318L116.851 3.96882C117.121 3.8482 117.418 3.784 117.755 3.784V1.784ZM116.025 2.14732C115.46 2.40709 114.993 2.80769 114.624 3.31851L116.245 4.48949C116.431 4.23231 116.636 4.06757 116.86 3.96468L116.025 2.14732ZM115.976 3.06328L114.088 1.84728L113.005 3.52872L114.893 4.74471L115.976 3.06328ZM114.379 3.2427C114.696 2.76652 115.15 2.37175 115.776 2.06737L114.901 0.268632C113.992 0.710918 113.25 1.32948 112.715 2.1333L114.379 3.2427ZM115.776 2.06737C116.386 1.77084 117.117 1.608 117.995 1.608V-0.392C116.867 -0.392 115.827 -0.18151 114.901 0.268631L115.776 2.06737ZM117.995 1.608C118.717 1.608 119.297 1.7284 119.762 1.93651L120.58 0.11149C119.807 -0.235062 118.936 -0.392 117.995 -0.392V1.608ZM119.78 1.94475C120.262 2.14863 120.587 2.41654 120.806 2.73106L122.448 1.58894C121.984 0.922125 121.338 0.432698 120.561 0.103248L119.78 1.94475ZM120.814 2.74291C121.029 3.04193 121.155 3.41803 121.155 3.92H123.155C123.155 3.05664 122.929 2.25941 122.439 1.57709L120.814 2.74291ZM121.155 3.92C121.155 4.19335 121.119 4.47005 121.044 4.75211L122.977 5.26389C123.095 4.82061 123.155 4.37198 123.155 3.92H121.155ZM121.039 4.7724C120.991 4.96963 120.876 5.22881 120.648 5.55305L122.285 6.70295C122.612 6.23786 122.86 5.75037 122.982 5.2436L121.039 4.7724ZM120.638 5.56814C120.428 5.87869 120.091 6.26434 119.598 6.72693L120.967 8.18507C121.52 7.66632 121.972 7.16665 122.295 6.68786L120.638 5.56814ZM119.597 6.72809L116.013 10.1041L117.384 11.5599L120.968 8.18391L119.597 6.72809ZM117.584 10.3669L117.088 9.42287L115.317 10.3531L115.813 11.2971L117.584 10.3669ZM116.203 10.888H122.523V8.888H116.203V10.888ZM121.523 9.888V12H123.523V9.888H121.523ZM122.523 11H114.059V13H122.523V11ZM126.6 12H125.6V13H126.6V12ZM126.6 1.76L127.307 1.05289L125.6 -0.654214V1.76H126.6ZM127.72 2.88V3.88H130.134L128.427 2.17289L127.72 2.88ZM124.36 2.88H123.36V3.88H124.36V2.88ZM124.36 0.799999V-0.200001H123.36V0.799999H124.36ZM129.192 0.799999H130.192V-0.200001H129.192V0.799999ZM129.192 12V13H130.192V12H129.192ZM127.6 12V1.76H125.6V12H127.6ZM125.893 2.46711L127.013 3.58711L128.427 2.17289L127.307 1.05289L125.893 2.46711ZM127.72 1.88H124.36V3.88H127.72V1.88ZM125.36 2.88V0.799999H123.36V2.88H125.36ZM124.36 1.8H129.192V-0.200001H124.36V1.8ZM128.192 0.799999V12H130.192V0.799999H128.192ZM129.192 11H126.6V13H129.192V11ZM144.837 1.248L145.333 0.379756L145.333 0.379756L144.837 1.248ZM146.565 3.12L145.668 3.56255L145.671 3.56721L146.565 3.12ZM146.437 9.44L145.56 8.95966L145.556 8.96778L146.437 9.44ZM144.437 11.488L144.919 12.3642L144.919 12.3642L144.437 11.488ZM138.357 11.424L137.464 10.9738L137.06 11.7748L137.813 12.263L138.357 11.424ZM139.317 9.52L139.885 8.69679L138.94 8.04558L138.424 9.06979L139.317 9.52ZM140.309 9.968L140.073 10.9399L140.087 10.9432L140.101 10.9462L140.309 9.968ZM143.701 9.2L142.987 8.49938L142.981 8.50611L143.701 9.2ZM144.549 5.952L143.55 5.99741L143.55 5.99741L144.549 5.952ZM144.469 5.248L145.159 4.52464L142.935 2.4013L143.485 5.42689L144.469 5.248ZM145.173 5.92L146.09 6.31958L146.369 5.67908L145.863 5.19664L145.173 5.92ZM144.405 6.976L145.048 7.74219L145.055 7.7362L145.062 7.73008L144.405 6.976ZM143.253 7.616L143.555 8.56923L143.566 8.5659L143.576 8.56235L143.253 7.616ZM139.829 7.392L139.382 8.28645L139.388 8.28967L139.829 7.392ZM138.437 6.176L137.6 6.72279L137.604 6.72872L137.608 6.7346L138.437 6.176ZM138.485 2.352L137.663 1.78274L137.655 1.79362L138.485 2.352ZM140.021 1.072L140.444 1.97821L140.45 1.97513L140.021 1.072ZM141.349 2.752L141.768 3.65996L141.782 3.65341L141.796 3.64643L141.349 2.752ZM140.693 3.328L141.531 3.87427L141.536 3.86618L141.541 3.858L140.693 3.328ZM140.965 5.44L140.293 6.18099L140.306 6.19195L140.318 6.20251L140.965 5.44ZM143.349 5.68L143.783 6.581L143.79 6.57776L143.796 6.57443L143.349 5.68ZM144.037 5.072L143.189 4.542L143.189 4.542L144.037 5.072ZM144.037 3.36L143.173 3.86387L143.186 3.8854L143.199 3.90627L144.037 3.36ZM143.381 2.768L142.921 3.65575L142.934 3.66257L142.947 3.669L143.381 2.768ZM142.165 1.608C143.061 1.608 143.773 1.7919 144.341 2.11624L145.333 0.379756C144.407 -0.149234 143.338 -0.392 142.165 -0.392V1.608ZM144.341 2.11624C144.903 2.43753 145.345 2.90762 145.668 3.56255L147.462 2.67745C146.974 1.68971 146.264 0.911807 145.333 0.379756L144.341 2.11624ZM145.671 3.56721C145.987 4.19992 146.173 5.04865 146.173 6.16H148.173C148.173 4.83935 147.954 3.66141 147.459 2.67279L145.671 3.56721ZM146.173 6.16C146.173 7.32614 145.951 8.24478 145.56 8.95969L147.314 9.92031C147.904 8.84322 148.173 7.5752 148.173 6.16H146.173ZM145.556 8.96778C145.163 9.70117 144.631 10.2399 143.955 10.6118L144.919 12.3642C145.949 11.7975 146.751 10.9708 147.318 9.91222L145.556 8.96778ZM143.955 10.6118C143.272 10.9877 142.45 11.192 141.461 11.192V13.192C142.733 13.192 143.896 12.927 144.919 12.3642L143.955 10.6118ZM141.461 11.192C140.948 11.192 140.459 11.1361 139.994 11.0266L139.536 12.9734C140.159 13.1199 140.801 13.192 141.461 13.192V11.192ZM139.994 11.0266C139.542 10.9201 139.183 10.7679 138.901 10.585L137.813 12.263C138.32 12.5921 138.9 12.8239 139.536 12.9734L139.994 11.0266ZM139.25 11.8742L140.21 9.97021L138.424 9.06979L137.464 10.9738L139.25 11.8742ZM138.749 10.3432C139.155 10.6233 139.598 10.8246 140.073 10.9399L140.545 8.99615C140.316 8.94071 140.097 8.84332 139.885 8.69679L138.749 10.3432ZM140.101 10.9462C140.526 11.0363 140.964 11.08 141.413 11.08V9.08C141.094 9.08 140.796 9.04903 140.517 8.98977L140.101 10.9462ZM141.413 11.08C142.592 11.08 143.634 10.711 144.421 9.89389L142.981 8.50611C142.638 8.86238 142.154 9.08 141.413 9.08V11.08ZM144.415 9.90059C145.237 9.06274 145.565 7.89968 145.565 6.592H143.565C143.565 7.58832 143.317 8.16393 142.987 8.49941L144.415 9.90059ZM145.565 6.592C145.565 6.38197 145.559 6.15319 145.548 5.90659L143.55 5.99741C143.56 6.22014 143.565 6.41803 143.565 6.592H145.565ZM145.548 5.90659C145.535 5.62646 145.503 5.34721 145.453 5.06911L143.485 5.42689C143.52 5.61812 143.541 5.8082 143.55 5.99741L145.548 5.90659ZM143.779 5.97136L144.483 6.64336L145.863 5.19664L145.159 4.52464L143.779 5.97136ZM144.256 5.52041C144.132 5.80532 143.963 6.03478 143.748 6.22192L145.062 7.73008C145.508 7.34122 145.851 6.86668 146.09 6.31958L144.256 5.52041ZM143.762 6.20981C143.533 6.40244 143.259 6.55732 142.93 6.66965L143.576 8.56235C144.122 8.37602 144.616 8.10422 145.048 7.74219L143.762 6.20981ZM142.951 6.66277C142.627 6.76531 142.241 6.824 141.781 6.824V8.824C142.409 8.824 143.004 8.74403 143.555 8.56923L142.951 6.66277ZM141.781 6.824C141.205 6.824 140.707 6.70889 140.27 6.49433L139.388 8.28967C140.125 8.65111 140.928 8.824 141.781 8.824V6.824ZM140.276 6.49757C139.851 6.28492 139.52 5.99379 139.266 5.6174L137.608 6.7346C138.058 7.40354 138.655 7.92308 139.382 8.28643L140.276 6.49757ZM139.274 5.62921C139.052 5.28932 138.925 4.8714 138.925 4.336H136.925C136.925 5.2086 137.139 6.01734 137.6 6.72279L139.274 5.62921ZM138.925 4.336C138.925 3.73649 139.068 3.27644 139.315 2.91038L137.655 1.79362C137.155 2.53689 136.925 3.39951 136.925 4.336H138.925ZM139.307 2.92121C139.585 2.51923 139.957 2.20556 140.444 1.97818L139.598 0.165816C138.805 0.535772 138.153 1.07543 137.663 1.78279L139.307 2.92121ZM140.45 1.97513C140.956 1.73462 141.523 1.608 142.165 1.608V-0.392C141.25 -0.392 140.387 -0.209285 139.592 0.168865L140.45 1.97513ZM142.325 1.544C141.828 1.544 141.344 1.63671 140.902 1.85757L141.796 3.64643C141.909 3.58995 142.076 3.544 142.325 3.544V1.544ZM140.93 1.84404C140.478 2.05258 140.109 2.3749 139.845 2.798L141.541 3.858C141.597 3.7691 141.665 3.70742 141.768 3.65996L140.93 1.84404ZM139.855 2.78173C139.573 3.21498 139.453 3.70546 139.453 4.208H141.453C141.453 4.02787 141.493 3.93168 141.531 3.87427L139.855 2.78173ZM139.453 4.208C139.453 4.96726 139.718 5.65978 140.293 6.18099L141.637 4.69901C141.529 4.60155 141.453 4.47274 141.453 4.208H139.453ZM140.318 6.20251C140.892 6.6896 141.605 6.888 142.357 6.888V4.888C141.957 4.888 141.742 4.78773 141.612 4.67749L140.318 6.20251ZM142.357 6.888C142.855 6.888 143.339 6.79491 143.783 6.581L142.915 4.779C142.783 4.84242 142.605 4.888 142.357 4.888V6.888ZM143.796 6.57443C144.241 6.35181 144.617 6.03026 144.885 5.602L143.189 4.542C143.137 4.62574 143.054 4.70953 142.902 4.78557L143.796 6.57443ZM144.885 5.602C145.15 5.17739 145.277 4.70366 145.277 4.208H143.277C143.277 4.35233 143.244 4.45461 143.189 4.542L144.885 5.602ZM145.277 4.208C145.277 3.7127 145.15 3.23653 144.875 2.81373L143.199 3.90627C143.244 3.97414 143.277 4.0633 143.277 4.208H145.277ZM144.901 2.85613C144.643 2.41417 144.268 2.08507 143.815 1.867L142.947 3.669C143.07 3.72826 143.132 3.79383 143.173 3.86387L144.901 2.85613ZM143.841 1.88025C143.377 1.63929 142.857 1.544 142.325 1.544V3.544C142.625 3.544 142.809 3.59804 142.921 3.65575L143.841 1.88025ZM151.872 11.776L151.494 12.7016L151.506 12.7064L151.872 11.776ZM150.224 10.576L149.426 11.1786L149.432 11.1865L150.224 10.576ZM150.208 6.992L149.429 6.36524L149.428 6.3673L150.208 6.992ZM151.856 5.888L152.186 6.83239L152.198 6.82779L151.856 5.888ZM156.832 5.888L156.491 6.82779L156.499 6.83088L156.508 6.83382L156.832 5.888ZM158.48 6.992L157.693 7.60831L157.7 7.6178L157.708 7.6271L158.48 6.992ZM158.48 10.576L159.273 11.1865L159.279 11.1786L158.48 10.576ZM156.816 11.776L157.183 12.7064L157.19 12.7035L156.816 11.776ZM155.872 9.856L155.272 9.05593L155.262 9.06422L155.872 9.856ZM155.872 7.504L155.262 8.29578L155.274 8.30543L155.287 8.31468L155.872 7.504ZM152.816 7.504L153.413 8.30674L153.42 8.30133L153.427 8.29578L152.816 7.504ZM152.816 9.856L152.206 10.6478L152.206 10.6478L152.816 9.856ZM152.064 6.464L151.72 7.40289L151.725 7.40469L152.064 6.464ZM150.56 5.44L149.767 6.04882L149.775 6.05911L149.783 6.0692L150.56 5.44ZM150.576 2.112L151.368 2.72348L151.374 2.71483L150.576 2.112ZM152.096 1.008L152.463 1.93866L152.476 1.9333L152.096 1.008ZM156.592 1.008L156.208 1.93108L156.217 1.93491L156.226 1.93857L156.592 1.008ZM158.112 2.112L157.315 2.71483L157.322 2.72477L157.33 2.73452L158.112 2.112ZM158.128 5.44L157.344 4.81976L157.342 4.82218L158.128 5.44ZM155.616 4.928L155.008 4.13439L155.002 4.13939L154.995 4.1445L155.616 4.928ZM155.6 2.88L154.992 3.67361L154.998 3.6784L155.005 3.6831L155.6 2.88ZM153.088 2.88L153.697 3.67361L153.088 2.88ZM153.072 4.928L152.451 5.7115L152.451 5.7115L153.072 4.928ZM154.336 11.192C153.494 11.192 152.802 11.0673 152.239 10.8456L151.506 12.7064C152.351 13.0393 153.302 13.192 154.336 13.192V11.192ZM152.251 10.8505C151.681 10.6173 151.286 10.315 151.017 9.96549L149.432 11.1865C149.952 11.861 150.656 12.3587 151.494 12.7015L152.251 10.8505ZM151.023 9.9734C150.767 9.63485 150.632 9.24146 150.632 8.752H148.632C148.632 9.64921 148.893 10.4718 149.426 11.1786L151.023 9.9734ZM150.632 8.752C150.632 8.25505 150.765 7.89682 150.989 7.61669L149.428 6.3673C148.884 7.04718 148.632 7.86228 148.632 8.752H150.632ZM150.988 7.61876C151.245 7.29897 151.625 7.02749 152.186 6.8323L151.527 4.9437C150.68 5.23917 149.961 5.70369 149.429 6.36524L150.988 7.61876ZM152.198 6.82779C152.768 6.62067 153.474 6.504 154.336 6.504V4.504C153.3 4.504 152.353 4.64333 151.515 4.94821L152.198 6.82779ZM154.336 6.504C155.211 6.504 155.922 6.62106 156.491 6.82779L157.174 4.94821C156.335 4.64294 155.382 4.504 154.336 4.504V6.504ZM156.508 6.83382C157.079 7.02985 157.451 7.2996 157.693 7.60831L159.268 6.37569C158.742 5.70307 158.015 5.23682 157.157 4.94218L156.508 6.83382ZM157.708 7.6271C157.938 7.9073 158.072 8.26182 158.072 8.752H160.072C160.072 7.85551 159.812 7.0367 159.253 6.35689L157.708 7.6271ZM158.072 8.752C158.072 9.24146 157.938 9.63485 157.682 9.9734L159.279 11.1786C159.812 10.4718 160.072 9.64921 160.072 8.752H158.072ZM157.688 9.96549C157.422 10.3116 157.024 10.6142 156.443 10.8485L157.19 12.7035C158.038 12.3618 158.75 11.8644 159.273 11.1865L157.688 9.96549ZM156.45 10.8456C155.888 11.0669 155.191 11.192 154.336 11.192V13.192C155.381 13.192 156.337 13.0398 157.183 12.7064L156.45 10.8456ZM154.336 11.288C155.126 11.288 155.879 11.1138 156.483 10.6478L155.262 9.06422C155.119 9.17419 154.849 9.288 154.336 9.288V11.288ZM156.472 10.656C157.121 10.1695 157.448 9.47171 157.448 8.672H155.448C155.448 8.87495 155.392 8.96647 155.272 9.056L156.472 10.656ZM157.448 8.672C157.448 7.87159 157.12 7.17119 156.458 6.69332L155.287 8.31468C155.393 8.39147 155.448 8.46975 155.448 8.672H157.448ZM156.483 6.71222C155.879 6.24619 155.126 6.072 154.336 6.072V8.072C154.849 8.072 155.119 8.18581 155.262 8.29578L156.483 6.71222ZM154.336 6.072C153.554 6.072 152.807 6.24818 152.206 6.71222L153.427 8.29578C153.572 8.18382 153.839 8.072 154.336 8.072V6.072ZM152.22 6.70126C151.571 7.18372 151.256 7.88298 151.256 8.672H153.256C153.256 8.45835 153.316 8.37894 153.413 8.30674L152.22 6.70126ZM151.256 8.672C151.256 9.46059 151.569 10.157 152.206 10.6478L153.427 9.06422C153.317 8.97902 153.256 8.88608 153.256 8.672H151.256ZM152.206 10.6478C152.807 11.1118 153.554 11.288 154.336 11.288V9.288C153.839 9.288 153.572 9.17618 153.427 9.06422L152.206 10.6478ZM154.336 5.816C153.561 5.816 152.922 5.71034 152.404 5.52331L151.725 7.40469C152.508 7.687 153.384 7.816 154.336 7.816V5.816ZM152.409 5.52512C151.907 5.34121 151.567 5.09455 151.338 4.8108L149.783 6.0692C150.279 6.68144 150.942 7.11746 151.72 7.40288L152.409 5.52512ZM151.354 4.83118C151.148 4.5629 151.032 4.23786 151.032 3.808H149.032C149.032 4.63681 149.269 5.39977 149.767 6.04882L151.354 4.83118ZM151.032 3.808C151.032 3.34111 151.156 2.99755 151.368 2.72345L149.785 1.50055C149.272 2.16512 149.032 2.95222 149.032 3.808H151.032ZM151.374 2.71483C151.609 2.40421 151.955 2.13827 152.463 1.93857L151.73 0.0774334C150.937 0.389732 150.269 0.859788 149.779 1.50917L151.374 2.71483ZM152.476 1.9333C152.985 1.7247 153.599 1.608 154.336 1.608V-0.392C153.389 -0.392 152.51 -0.242039 151.717 0.0826942L152.476 1.9333ZM154.336 1.608C155.1 1.608 155.716 1.72602 156.208 1.93108L156.977 0.0849224C156.189 -0.243355 155.301 -0.392 154.336 -0.392V1.608ZM156.226 1.93857C156.734 2.13827 157.08 2.40421 157.315 2.71483L158.91 1.50917C158.42 0.859788 157.752 0.389732 156.959 0.0774334L156.226 1.93857ZM157.33 2.73452C157.548 3.0085 157.672 3.3481 157.672 3.808H159.672C159.672 2.94523 159.424 2.15417 158.895 1.48948L157.33 2.73452ZM157.672 3.808C157.672 4.23057 157.556 4.55156 157.344 4.81976L158.913 6.06024C159.426 5.4111 159.672 4.64409 159.672 3.808H157.672ZM157.342 4.82218C157.129 5.09401 156.797 5.33856 156.285 5.52331L156.964 7.40469C157.753 7.1201 158.424 6.68199 158.915 6.05782L157.342 4.82218ZM156.285 5.52331C155.768 5.70991 155.125 5.816 154.336 5.816V7.816C155.298 7.816 156.18 7.68743 156.964 7.40469L156.285 5.52331ZM154.336 6.296C155.022 6.296 155.695 6.14169 156.238 5.7115L154.995 4.1445C154.919 4.20498 154.739 4.296 154.336 4.296V6.296ZM156.225 5.72161C156.808 5.2746 157.096 4.63669 157.096 3.92H155.096C155.096 4.00638 155.081 4.04675 155.074 4.06207C155.067 4.07556 155.053 4.09975 155.008 4.13439L156.225 5.72161ZM157.096 3.92C157.096 3.18776 156.806 2.52934 156.196 2.0769L155.005 3.6831C155.056 3.72132 155.096 3.75624 155.096 3.92H157.096ZM156.209 2.08639C155.669 1.67217 155.014 1.512 154.336 1.512V3.512C154.705 3.512 154.892 3.59716 154.992 3.67361L156.209 2.08639ZM154.336 1.512C153.665 1.512 153.017 1.67475 152.48 2.08639L153.697 3.67361C153.8 3.59458 153.984 3.512 154.336 3.512V1.512ZM152.48 2.08639C151.883 2.54382 151.608 3.20056 151.608 3.92H153.608C153.608 3.74344 153.654 3.70684 153.697 3.67361L152.48 2.08639ZM151.608 3.92C151.608 4.62365 151.881 5.25957 152.451 5.7115L153.694 4.1445C153.645 4.10576 153.608 4.06968 153.608 3.92H151.608ZM152.451 5.7115C152.99 6.1392 153.656 6.296 154.336 6.296V4.296C153.95 4.296 153.773 4.20747 153.694 4.1445L152.451 5.7115Z" fill="black"/>
</svg>
