<svg width="18" height="19" viewBox="0 0 18 19" fill="none" xmlns="http://www.w3.org/2000/svg">
<path d="M13.1275 0H4.87243C2.18573 0 0 2.30716 0 5.14312V13.857C0 16.6928 2.18573 19 4.87243 19H13.1277C15.8142 19 18 16.6928 18 13.857V5.14312C18 2.30716 15.8142 0 13.1275 0V0ZM8.99998 14.6951C6.28609 14.6951 4.07825 12.3646 4.07825 9.49998C4.07825 6.63532 6.28609 4.30482 8.99998 4.30482C11.7139 4.30482 13.9217 6.63532 13.9217 9.49998C13.9217 12.3646 11.7139 14.6951 8.99998 14.6951ZM14.0394 5.53001C13.2374 5.53001 12.5851 4.84146 12.5851 3.9949C12.5851 3.14835 13.2374 2.45965 14.0394 2.45965C14.8414 2.45965 15.4939 3.14835 15.4939 3.9949C15.4939 4.84146 14.8414 5.53001 14.0394 5.53001Z" fill="#EA6628"/>
</svg>
